<svg xmlns="http://www.w3.org/2000/svg" xmlns:xlink="http://www.w3.org/1999/xlink" viewBox="0,0,256,256" width="50px" height="50px" fill-rule="nonzero"><g fill="#f5f5f5" fill-rule="nonzero" stroke="none" stroke-width="1" stroke-linecap="butt" stroke-linejoin="miter" stroke-miterlimit="10" stroke-dasharray="" stroke-dashoffset="0" font-family="none" font-weight="none" font-size="none" text-anchor="none" style="mix-blend-mode: normal"><g transform="scale(5.12,5.12)"><path d="M25,3c-11.05859,0 -20,2.52344 -20,5.74219l0.11719,0.57031l2.88281,18.6875c0,3.21484 7.94141,6 17,6c9.05859,0 17,-2.78516 17,-6l2.88281,-18.6875l0.11719,-0.57031c0,-3.21875 -8.94141,-5.74219 -20,-5.74219zM25,6c7.71094,0 14,1.51563 14,3.5c0,1.98438 -6.28906,3.5 -14,3.5c-7.71094,0 -14,-1.51562 -14,-3.5c0,-1.98437 6.28906,-3.5 14,-3.5zM25,18c3.35938,0 6,2.64063 6,6c0,3.35938 -2.64062,6 -6,6c-3.35937,0 -6,-2.64062 -6,-6c0,-3.35937 2.64063,-6 6,-6zM25,21c-1.65625,0 -3,1.34375 -3,3c0,1.65625 1.34375,3 3,3c1.65625,0 3,-1.34375 3,-3c0,-1.65625 -1.34375,-3 -3,-3zM10.76172,33.41016l1.29688,9.20703c0,2.37891 5.83594,4.32422 12.65625,4.37891c6.81641,-0.05469 12.64844,-2.00391 12.64844,-4.37891l1.26172,-8.94531c-3.66797,1.52734 -8.72266,2.32813 -13.625,2.32813c-5.17969,0 -10.53516,-0.89062 -14.23828,-2.58984z"></path></g></g></svg>